<svg width="43" height="36" viewBox="0 0 43 36" fill="none" xmlns="http://www.w3.org/2000/svg">
<path d="M18 3.00068V3.96376C19.3965 3.87326 20.1441 3.98166 20.2217 3.99381C20.6712 4.06405 21.0551 4.34197 21.2484 4.73639L23.2108 8.73932C23.4483 8.79233 23.6745 8.90445 23.8615 9.07903C24.0982 9.29988 24.3815 9.47277 24.7026 9.54774C25.3437 9.69733 25.9798 9.5268 26.4293 9.10841C26.8933 8.67685 27.601 8.5671 28.1479 8.89803C28.9298 9.37079 29.0137 10.3724 28.4005 10.9593C27.5354 11.7876 26.3848 12.2438 25.1609 12.2438C25.0822 12.2438 25.0039 12.2418 24.9256 12.2381L27.5636 17.6198C27.6751 17.8467 27.7806 18.0753 27.8808 18.305C30.8512 17.4084 34.2299 18.0743 36.5906 20.3081C37.1184 20.8072 37.177 21.6224 36.6838 22.1532C36.4082 22.4497 36.0293 22.598 35.6503 22.598C35.2972 22.598 34.9436 22.469 34.6744 22.211C33.0744 20.6799 30.7771 20.2142 28.7519 20.8116C29.52 23.7427 29.4689 26.7677 28.6761 29.6043C29.0494 29.7225 29.4294 29.8278 29.8153 29.9197C30.2634 30.026 30.7316 30.0271 31.1801 29.921C38.0838 28.2866 43 22.3444 43 15.4599V3.00068C43 2.38373 42.602 1.8306 41.9987 1.61346C40.0973 0.92965 36.4227 0 30.5005 0C24.578 0 20.903 0.929988 19.0013 1.6138C18.398 1.8306 18 2.38373 18 3.00068ZM33.2621 9.09085C33.8012 8.57487 34.6751 8.57487 35.2146 9.09085C35.5582 9.41976 36.0152 9.60109 36.5013 9.60109C36.9875 9.60109 37.4448 9.41976 37.7884 9.09085C38.3276 8.57453 39.2019 8.57453 39.741 9.09085C40.2801 9.60683 40.2801 10.4433 39.741 10.9593C38.8755 11.7876 37.7253 12.2438 36.5013 12.2438C35.2778 12.2438 34.1272 11.7876 33.2617 10.9593C32.723 10.4433 32.723 9.60683 33.2621 9.09085Z" fill="#393939"/>
<path d="M25.6623 18.4005L20.6234 7.74858C20.3915 7.25817 19.8779 6.96285 19.3332 7.00377C17.5136 7.14017 14.1007 7.73875 9.18488 10.0262C4.32438 12.2879 1.68256 14.482 0.397157 15.7896C-0.0106296 16.2045 -0.114895 16.8268 0.133295 17.3515L5.14539 27.9473C7.91483 33.8018 14.3406 36.978 20.664 35.7314C21.0727 35.6508 21.4553 35.4728 21.7789 35.2124C26.7875 31.1864 28.4318 24.2553 25.6623 18.4005ZM15.5358 17.6066C16.314 15.4705 18.6993 14.3602 20.853 15.1323C21.5029 15.3651 21.8394 16.0766 21.6046 16.7215C21.3699 17.3661 20.6525 17.7001 20.0023 17.467C19.1467 17.1606 18.199 17.6015 17.8898 18.45C17.7055 18.9557 17.2252 19.27 16.7128 19.27C16.5714 19.27 16.4278 19.2462 16.2874 19.1958C15.6375 18.9626 15.3007 18.2511 15.5358 17.6066ZM10.6958 21.7975C10.2813 21.6491 9.83318 21.6694 9.43403 21.8553C9.0352 22.0408 8.73296 22.3695 8.58328 22.7806C8.39905 23.2862 7.91834 23.6006 7.40597 23.6006C7.26493 23.6006 7.12132 23.5765 6.98091 23.5263C6.33069 23.2935 5.99423 22.582 6.22899 21.9371C6.60607 20.9024 7.36663 20.0751 8.37091 19.6078C9.3755 19.1406 10.5029 19.0889 11.5462 19.4629C12.1964 19.6957 12.5329 20.4072 12.2981 21.0521C12.0631 21.6967 11.3457 22.0304 10.6958 21.7975ZM14.8981 29.9112C14.0137 29.9112 13.1153 29.7621 12.2367 29.4471C11.5865 29.2143 11.25 28.5028 11.4848 27.8579C11.7199 27.2133 12.4369 26.8793 13.0872 27.1124C15.8624 28.1069 18.9359 26.6766 19.9386 23.9244C20.1734 23.2796 20.8908 22.9459 21.541 23.1787C22.1909 23.4118 22.5273 24.1233 22.2926 24.7682C21.1383 27.9362 18.114 29.9112 14.8981 29.9112Z" fill="#393939"/>
</svg>
