<svg width="35" height="35" viewBox="0 0 35 35" fill="none" xmlns="http://www.w3.org/2000/svg">
<path fill-rule="evenodd" clip-rule="evenodd" d="M2.91602 17.5003C2.91602 9.45033 9.44935 2.91699 17.4994 2.91699C25.5494 2.91699 32.0827 9.45033 32.0827 17.5003C32.0827 25.5503 25.5494 32.0837 17.4994 32.0837C9.44935 32.0837 2.91602 25.5503 2.91602 17.5003ZM18.9577 18.9587H23.3327C24.1348 18.9587 24.791 18.3024 24.791 17.5003C24.791 16.6982 24.1348 16.042 23.3327 16.042H18.9577V11.667C18.9577 10.8649 18.3014 10.2087 17.4993 10.2087C16.6973 10.2087 16.041 10.8649 16.041 11.667V16.042H11.666C10.8639 16.042 10.2077 16.6982 10.2077 17.5003C10.2077 18.3024 10.8639 18.9587 11.666 18.9587H16.041V23.3337C16.041 24.1357 16.6973 24.792 17.4993 24.792C18.3014 24.792 18.9577 24.1357 18.9577 23.3337V18.9587Z" fill="#98B9F1"/>
</svg>
