<svg width="21" height="22" viewBox="0 0 21 22" fill="none" xmlns="http://www.w3.org/2000/svg">
<path d="M15.0086 13.9967H14.06L13.7238 13.6725C14.9005 12.3038 15.6089 10.5268 15.6089 8.59369C15.6089 4.28327 12.1149 0.789307 7.80446 0.789307C3.494 0.789307 0 4.28327 0 8.59369C0 12.9041 3.494 16.3981 7.80446 16.3981C9.73756 16.3981 11.5146 15.6897 12.8834 14.513L13.2075 14.8492V15.7977L19.211 21.7891L21 20.0001L15.0086 13.9967ZM7.80446 13.9967C4.81475 13.9967 2.40137 11.5834 2.40137 8.59369C2.40137 5.60401 4.81475 3.19066 7.80446 3.19066C10.7942 3.19066 13.2075 5.60401 13.2075 8.59369C13.2075 11.5834 10.7942 13.9967 7.80446 13.9967Z" fill="#393939"/>
</svg>
