<svg width="32" height="32" viewBox="0 0 32 32" fill="none" xmlns="http://www.w3.org/2000/svg">
<path fill-rule="evenodd" clip-rule="evenodd" d="M15.9835 0.166992C7.24351 0.166992 0.166016 7.26033 0.166016 16.0003C0.166016 24.7403 7.24351 31.8337 15.9835 31.8337C24.7393 31.8337 31.8327 24.7403 31.8327 16.0003C31.8327 7.26033 24.7393 0.166992 15.9835 0.166992ZM10.4575 9.66702C9.14583 9.66702 8.08251 10.7303 8.08251 12.042C8.08251 13.3537 9.14583 14.417 10.4575 14.417C11.7692 14.417 12.8325 13.3537 12.8325 12.042C12.8325 10.7303 11.7692 9.66702 10.4575 9.66702ZM21.541 9.66702C20.2294 9.66702 19.166 10.7303 19.166 12.042C19.166 13.3537 20.2294 14.417 21.541 14.417C22.8527 14.417 23.916 13.3537 23.916 12.042C23.916 10.7303 22.8527 9.66702 21.541 9.66702ZM10.5366 19.167C11.6449 21.0511 13.6558 22.3336 15.9991 22.3336C18.3424 22.3336 20.3691 21.0511 21.4616 19.167H24.1058C22.8391 22.4128 19.6883 24.7086 15.9991 24.7086C12.3099 24.7086 9.15911 22.4128 7.89245 19.167H10.5366ZM3.33248 16.0003C3.33248 22.9987 9.00081 28.667 15.9991 28.667C22.9975 28.667 28.6658 22.9987 28.6658 16.0003C28.6658 9.00202 22.9975 3.33368 15.9991 3.33368C9.00081 3.33368 3.33248 9.00202 3.33248 16.0003Z" fill="#393939"/>
</svg>
