<svg width="46" height="24" viewBox="0 0 46 24" fill="none" xmlns="http://www.w3.org/2000/svg">
<path d="M35.5455 20.7273H11.5C6.87909 20.7273 3.13636 16.8218 3.13636 12C3.13636 7.17818 6.87909 3.27273 11.5 3.27273H37.6364C40.5218 3.27273 42.8636 5.71636 42.8636 8.72727C42.8636 11.7382 40.5218 14.1818 37.6364 14.1818H15.6818C14.5318 14.1818 13.5909 13.2 13.5909 12C13.5909 10.8 14.5318 9.81818 15.6818 9.81818H35.5455V6.54545H15.6818C12.7964 6.54545 10.4545 8.98909 10.4545 12C10.4545 15.0109 12.7964 17.4545 15.6818 17.4545H37.6364C42.2573 17.4545 46 13.5491 46 8.72727C46 3.90545 42.2573 0 37.6364 0H11.5C5.14364 0 0 5.36727 0 12C0 18.6327 5.14364 24 11.5 24H35.5455V20.7273Z" fill="#393939"/>
</svg>
