<svg width="35" height="35" viewBox="0 0 35 35" fill="none" xmlns="http://www.w3.org/2000/svg">
<path d="M34.2207 14.5332L30.126 13.5283C29.9004 12.8105 29.6133 12.1133 29.2646 11.4365L31.3564 7.9502C31.6025 7.54004 31.541 7.02734 31.2129 6.69922L28.3008 3.78711C27.9727 3.45898 27.46 3.39746 27.0498 3.64355L23.5635 5.73535C22.8867 5.38672 22.1895 5.09961 21.4717 4.87402L20.4873 0.779297C20.3643 0.328125 19.9541 0 19.4824 0H15.3809C14.9092 0 14.499 0.328125 14.376 0.779297L13.3916 4.87402C12.6738 5.09961 11.9766 5.38672 11.2998 5.73535L7.81348 3.64355C7.40332 3.39746 6.89062 3.45898 6.5625 3.78711L3.65039 6.69922C3.32227 7.02734 3.26074 7.54004 3.50684 7.9502L5.59863 11.4365C5.25 12.1133 4.96289 12.8105 4.7373 13.5283L0.779297 14.5332C0.328125 14.6357 0 15.0459 0 15.5176V19.6191C0 20.0908 0.328125 20.501 0.779297 20.6035L4.7373 21.6084C4.96289 22.3262 5.25 23.0234 5.59863 23.7002L3.50684 27.1865C3.26074 27.5967 3.32227 28.1094 3.65039 28.4375L6.5625 31.3496C6.89062 31.6777 7.40332 31.7393 7.81348 31.4932L11.2998 29.4014C11.9766 29.75 12.6738 30.0371 13.3916 30.2627L14.376 34.2207C14.499 34.6719 14.9092 35 15.3809 35H19.4824C19.9541 35 20.3643 34.6719 20.4873 34.2207L21.4717 30.2627C22.1895 30.0371 22.8867 29.75 23.5635 29.4014L27.0498 31.4932C27.46 31.7393 27.9727 31.6777 28.3008 31.3496L31.2129 28.4375C31.541 28.1094 31.6025 27.5967 31.3564 27.1865L29.2646 23.7002C29.6133 23.0234 29.9004 22.3262 30.126 21.6084L34.2207 20.6035C34.6719 20.501 35 20.0908 35 19.6191V15.5176C35 15.0459 34.6719 14.6357 34.2207 14.5332ZM17.4316 22.6953C14.6016 22.6953 12.3047 20.3984 12.3047 17.5684C12.3047 14.7383 14.6016 12.4414 17.4316 12.4414C20.2617 12.4414 22.5586 14.7383 22.5586 17.5684C22.5586 20.3984 20.2617 22.6953 17.4316 22.6953Z" fill="#393939"/>
</svg>
