<svg width="24" height="24" viewBox="0 0 24 24" fill="none" xmlns="http://www.w3.org/2000/svg">
<path fill-rule="evenodd" clip-rule="evenodd" d="M13.3158 0.0175781H22.6491C23.3825 0.0175781 23.9825 0.617578 23.9825 1.35091V8.01758C23.9825 8.75091 23.3825 9.35091 22.6491 9.35091H15.9825L11.9825 13.3509V1.35091C11.9825 0.617578 12.5825 0.0175781 13.3158 0.0175781ZM18.2358 15.9772L21.6225 16.3638C22.9691 16.5238 23.9825 17.6572 23.9691 19.0038V21.3105C23.9691 22.8172 22.7158 24.0705 21.2091 23.9772C9.83581 23.2705 0.729143 14.1772 0.0224761 2.7905C-0.0708572 1.28383 1.18248 0.0304976 2.68914 0.0304976H4.99581C6.35581 0.0304976 7.48914 1.04383 7.64914 2.3905L8.03581 5.7505C8.12914 6.56383 7.84914 7.36383 7.27581 7.93716L4.80914 10.4038C6.72914 14.1905 9.82248 17.2705 13.5958 19.1905L16.0491 16.7372C16.6225 16.1638 17.4225 15.8838 18.2358 15.9772Z" fill="#393939"/>
</svg>
