<svg width="49" height="49" viewBox="0 0 49 49" fill="none" xmlns="http://www.w3.org/2000/svg">
<path fill-rule="evenodd" clip-rule="evenodd" d="M24.5 0.749878C11.3662 0.749878 0.75 11.3661 0.75 24.4999C0.75 37.6336 11.3662 48.2499 24.5 48.2499C37.6338 48.2499 48.25 37.6336 48.25 24.4999C48.25 11.3661 37.6338 0.749878 24.5 0.749878ZM24.4996 43.4998C14.0258 43.4998 5.49956 34.9735 5.49956 24.4998C5.49956 14.026 14.0258 5.49977 24.4996 5.49977C34.9733 5.49977 43.4995 14.026 43.4995 24.4998C43.4995 34.9735 34.9733 43.4998 24.4996 43.4998ZM24.4996 21.151L33.0258 12.6248L36.3746 15.9735L27.8483 24.4998L36.3746 33.026L33.0258 36.3748L24.4996 27.8485L15.9733 36.3748L12.6246 33.026L21.1508 24.4998L12.6246 15.9735L15.9733 12.6248L24.4996 21.151Z" fill="#A5A5A5"/>
</svg>
