<svg width="31" height="31" viewBox="0 0 31 31" fill="none" xmlns="http://www.w3.org/2000/svg">
<path d="M28.7127 19.9088L30.9173 17.7043L28.7127 15.4997L23.209 21.0034L9.9969 7.79134L15.5007 2.28759L13.2961 0.0830078L11.0915 2.28759L8.8869 0.0830078L5.58774 3.38217L3.38315 1.17759L1.17857 3.38217L3.38315 5.58676L0.0839844 8.88592L2.28857 11.0905L0.0839844 13.2951L2.28857 15.4997L7.79232 9.99592L21.0044 23.208L15.5007 28.7118L17.7052 30.9163L19.9098 28.7118L22.1144 30.9163L25.4136 27.6172L27.6182 29.8218L29.8227 27.6172L27.6182 25.4126L30.9173 22.1134L28.7127 19.9088Z" fill="#393939"/>
</svg>
