<svg width="39" height="39" viewBox="0 0 39 39" fill="none" xmlns="http://www.w3.org/2000/svg">
<path fill-rule="evenodd" clip-rule="evenodd" d="M36.1848 6.77087H32.229V2.81504C32.229 1.75754 31.3673 0.895874 30.3098 0.895874H30.2511C29.174 0.895874 28.3123 1.75754 28.3123 2.81504V6.77087H24.3761C23.3186 6.77087 22.4569 7.63254 22.4373 8.69004V8.74879C22.4373 9.82587 23.299 10.6875 24.3761 10.6875H28.3123V14.6238C28.3123 15.6813 29.174 16.5625 30.2511 16.543H30.3098C31.3673 16.543 32.229 15.6813 32.229 14.6238V10.6875H36.1848C37.2423 10.6875 38.104 9.82587 38.104 8.76837V8.69004C38.104 7.63254 37.2423 6.77087 36.1848 6.77087ZM26.3538 14.6238V12.6459H24.3759C23.338 12.6459 22.3588 12.2346 21.6147 11.51C20.8901 10.7659 20.4788 9.78671 20.4788 8.69004C20.4788 7.98504 20.6747 7.3388 21.0076 6.77088H4.81217C2.65801 6.77088 0.895508 8.53338 0.895508 10.6875V34.1875C0.895508 36.3417 2.65801 38.1042 4.81217 38.1042H28.3122C30.4663 38.1042 32.2288 36.3417 32.2288 34.1875V17.9725C31.6413 18.3055 30.9755 18.5209 30.2313 18.5209C28.0968 18.5013 26.3538 16.7584 26.3538 14.6238ZM6.77046 34.1876H26.2755C27.098 34.1876 27.5484 33.2476 27.0392 32.6013L21.2621 25.3947C20.8705 24.8855 20.1067 24.9051 19.715 25.4142L14.6038 32.2292L11.4705 27.5097C11.0788 26.9613 10.2759 26.9222 9.86463 27.4705L5.98713 32.6209C5.49754 33.2672 5.96754 34.1876 6.77046 34.1876Z" fill="#393939"/>
</svg>
