<svg width="37" height="37" viewBox="0 0 37 37" fill="none" xmlns="http://www.w3.org/2000/svg">
<path fill-rule="evenodd" clip-rule="evenodd" d="M18.5007 0.583008C8.61065 0.583008 0.583984 8.60967 0.583984 18.4997C0.583984 28.3897 8.61065 36.4163 18.5007 36.4163C28.3907 36.4163 36.4173 28.3897 36.4173 18.4997C36.4173 8.60967 28.3907 0.583008 18.5007 0.583008ZM18.5006 27.458C17.5152 27.458 16.709 26.6517 16.709 25.6663V18.4997C16.709 17.5142 17.5152 16.708 18.5006 16.708C19.4861 16.708 20.2923 17.5142 20.2923 18.4997V25.6663C20.2923 26.6517 19.4861 27.458 18.5006 27.458ZM16.709 13.1247H20.2923V9.54132H16.709V13.1247Z" fill="#393939"/>
</svg>
