<svg width="334" height="69" viewBox="0 0 334 69" fill="none" xmlns="http://www.w3.org/2000/svg">
<path d="M44 43.5C44 50 55.2388 58.5 60 43.5" stroke="black" stroke-width="2"/>
<path d="M22.3352 22.5C22.3352 18.0773 22.3352 14.1073 22.3352 10.9988C22.3352 7.68513 25.0215 5 28.3352 5H39.7689C40.1456 5 40.5222 5.02915 40.8866 5.12489C43.9101 5.91939 47.3842 8.66183 42.64 14.5317C41.3239 16.16 40.4636 18.3563 41.6275 20.0966C46.7427 27.745 62.7319 24.3286 61.8352 18.5C60.8919 12.3686 54.165 9.79643 60.5393 5.74741C61.3654 5.22269 62.3469 5 63.3255 5C67.2421 5 71.1482 5 74.337 5C77.6507 5 80.3351 7.68629 80.3351 11V21.1587C80.3351 22.042 80.5018 22.9339 81.0066 23.6587C82.4128 25.6778 85.0459 27.4852 88.511 25.1658C90.4787 23.8487 92.872 22.7961 94.9366 23.9553C104.554 29.3552 101.119 42.5643 91.7364 42.5909C90.8158 42.5935 89.941 42.2264 89.1608 41.7376C85.8147 39.6414 83.6168 39.0743 81.2652 42.1203C80.6007 42.981 80.3351 44.0732 80.3351 45.1606C80.3351 48.0278 80.3351 51.4685 80.3351 54.5008C80.3351 57.8145 77.6488 60.5 74.3351 60.5H28.335C25.0213 60.5 22.335 57.8136 22.335 54.4999C22.335 51.4026 22.335 48.4102 22.335 46.7332L22.3392 45.1606C22.3392 44.0732 22.0735 42.981 21.409 42.1203C19.0574 39.0743 16.8595 39.6414 13.5135 41.7376C12.7333 42.2264 11.8585 42.5935 10.9378 42.5909C1.55532 42.5643 -1.87973 29.3552 7.73765 23.9553C9.80227 22.7961 12.1956 23.8487 14.1633 25.1658C17.6284 27.4852 20.2615 25.6778 21.6677 23.6587C22.1725 22.9339 22.3392 22.042 22.3392 21.1587L22.3352 19.5001" stroke="black" stroke-width="3"/>
<ellipse cx="38.0845" cy="33" rx="3" ry="4" fill="black"/>
<ellipse cx="64.0845" cy="33" rx="3" ry="4" fill="black"/>
<path d="M149.404 10.072V12.504H129.116V31.256H146.844V33.688H129.116V55H126.236V10.072H149.404ZM178.68 55.512C174.541 55.512 170.808 54.552 167.48 52.632C164.152 50.6693 161.549 47.9387 159.672 44.44C157.795 40.9413 156.856 36.9947 156.856 32.6C156.856 28.1627 157.795 24.216 159.672 20.76C161.549 17.2613 164.152 14.552 167.48 12.632C170.808 10.6693 174.541 9.688 178.68 9.688C182.819 9.688 186.552 10.6693 189.88 12.632C193.208 14.552 195.811 17.2613 197.688 20.76C199.565 24.216 200.504 28.1627 200.504 32.6C200.504 36.9947 199.565 40.9413 197.688 44.44C195.811 47.9387 193.208 50.6693 189.88 52.632C186.552 54.552 182.819 55.512 178.68 55.512ZM178.68 52.952C182.221 52.952 185.421 52.12 188.28 50.456C191.139 48.792 193.379 46.424 195 43.352C196.664 40.28 197.496 36.696 197.496 32.6C197.496 28.4613 196.664 24.856 195 21.784C193.379 18.712 191.139 16.344 188.28 14.68C185.421 13.016 182.221 12.184 178.68 12.184C175.139 12.184 171.939 13.016 169.08 14.68C166.221 16.344 163.96 18.712 162.296 21.784C160.632 24.856 159.8 28.4613 159.8 32.6C159.8 36.696 160.632 40.28 162.296 43.352C163.96 46.424 166.221 48.792 169.08 50.456C171.939 52.12 175.139 52.952 178.68 52.952ZM235.067 55L223.547 35.864H223.291H213.691V55H210.811V10.072H223.163C228.155 10.072 231.888 11.2453 234.363 13.592C236.88 15.9387 238.139 19.0533 238.139 22.936C238.139 26.392 237.157 29.2507 235.195 31.512C233.275 33.7307 230.459 35.096 226.747 35.608L238.523 55H235.067ZM213.691 33.432H223.291C227.259 33.432 230.224 32.472 232.187 30.552C234.149 28.632 235.131 26.0933 235.131 22.936C235.131 16.0667 231.141 12.632 223.163 12.632H213.691V33.432ZM273.758 43.48H252.446L248.158 55H245.022L261.534 11.096H264.734L281.182 55H278.046L273.758 43.48ZM272.862 41.048L263.134 14.872L253.342 41.048H272.862ZM292.634 10.072V38.168C292.634 43.2453 293.786 46.9787 296.09 49.368C298.394 51.7147 301.53 52.888 305.498 52.888C309.424 52.888 312.517 51.7147 314.778 49.368C317.04 47.0213 318.17 43.288 318.17 38.168V10.072H321.05V38.104C321.05 43.9493 319.642 48.3013 316.826 51.16C314.01 54.0187 310.234 55.448 305.498 55.448C300.762 55.448 296.944 54.0187 294.042 51.16C291.184 48.2587 289.754 43.9067 289.754 38.104V10.072H292.634ZM300.826 5.784C300.144 5.784 299.568 5.54933 299.098 5.08C298.629 4.61067 298.394 4.03467 298.394 3.352C298.394 2.66933 298.629 2.09333 299.098 1.624C299.568 1.15466 300.144 0.919998 300.826 0.919998C301.466 0.919998 302.021 1.15466 302.49 1.624C303.002 2.09333 303.258 2.66933 303.258 3.352C303.258 4.03467 303.002 4.61067 302.49 5.08C302.021 5.54933 301.466 5.784 300.826 5.784ZM310.042 5.784C309.36 5.784 308.784 5.54933 308.314 5.08C307.845 4.61067 307.61 4.03467 307.61 3.352C307.61 2.66933 307.845 2.09333 308.314 1.624C308.784 1.15466 309.36 0.919998 310.042 0.919998C310.725 0.919998 311.28 1.15466 311.706 1.624C312.176 2.09333 312.41 2.66933 312.41 3.352C312.41 4.03467 312.176 4.61067 311.706 5.08C311.28 5.54933 310.725 5.784 310.042 5.784Z" fill="black"/>
<rect x="166" y="63" width="6" height="22" rx="3" transform="rotate(90 166 63)" fill="#E00E0E" fill-opacity="0.64"/>
<rect x="242" y="63" width="6" height="21" rx="3" transform="rotate(90 242 63)" fill="#1EC643" fill-opacity="0.81"/>
<rect x="267" y="63" width="6" height="21" rx="3" transform="rotate(90 267 63)" fill="#4285F4" fill-opacity="0.73"/>
<path d="M214 63C215.657 63 217 64.3431 217 66C217 67.6569 215.657 69 214 69L199 69C197.343 69 196 67.6569 196 66C196 64.3431 197.343 63 199 63L214 63Z" fill="#EED375"/>
<rect x="192" y="63" width="6" height="22" rx="3" transform="rotate(90 192 63)" fill="#EA5502" fill-opacity="0.67"/>
<rect x="140" y="63" width="6" height="22" rx="3" transform="rotate(90 140 63)" fill="#783B03" fill-opacity="0.63"/>
<rect x="318" y="63" width="6" height="21" rx="3" transform="rotate(90 318 63)" fill="#FF5FA2" fill-opacity="0.7"/>
<rect x="293" y="63" width="6" height="22" rx="3" transform="rotate(90 293 63)" fill="#CE91FF"/>
</svg>
