<svg width="22" height="22" viewBox="0 0 22 22" fill="none" xmlns="http://www.w3.org/2000/svg">
<path fill-rule="evenodd" clip-rule="evenodd" d="M0.166016 10.9998C0.166016 5.01984 5.01935 0.166504 10.9994 0.166504C16.9794 0.166504 21.8327 5.01984 21.8327 10.9998C21.8327 16.9798 16.9794 21.8332 10.9994 21.8332C5.01935 21.8332 0.166016 16.9798 0.166016 10.9998ZM12.0825 12.0832H15.3325C15.9283 12.0832 16.4158 11.5957 16.4158 10.9998C16.4158 10.404 15.9283 9.9165 15.3325 9.9165H12.0825V6.6665C12.0825 6.07067 11.595 5.58317 10.9991 5.58317C10.4033 5.58317 9.91579 6.07067 9.91579 6.6665V9.9165H6.66579C6.06995 9.9165 5.58245 10.404 5.58245 10.9998C5.58245 11.5957 6.06995 12.0832 6.66579 12.0832H9.91579V15.3332C9.91579 15.929 10.4033 16.4165 10.9991 16.4165C11.595 16.4165 12.0825 15.929 12.0825 15.3332V12.0832Z" fill="#393939"/>
</svg>
