<svg width="31" height="28" viewBox="0 0 31 28" fill="none" xmlns="http://www.w3.org/2000/svg">
<path fill-rule="evenodd" clip-rule="evenodd" d="M15.0062 3.22299C17.6462 0.0471367 22.5362 -1.24787 26.4962 1.52715C28.5962 3.00715 29.9162 5.50467 30.0062 8.12552C30.2012 14.1072 25.0562 18.9018 17.1812 26.2402L17.0162 26.3944C15.8762 27.4735 14.1212 27.4735 12.9812 26.4098L12.8312 26.271L12.7406 26.1864C4.91663 18.8804 -0.203014 14.0997 0.00617921 8.14093C0.0961792 5.50467 1.41618 3.00715 3.51618 1.52715C7.47618 -1.26329 12.3662 0.0471367 15.0062 3.22299ZM15.006 24.1281L15.156 23.9739C22.296 17.3293 27.006 12.9355 27.006 8.48008C27.006 5.39674 24.756 3.08423 21.756 3.08423C19.446 3.08423 17.196 4.61048 16.416 6.72257H13.611C12.816 4.61048 10.566 3.08423 8.25604 3.08423C5.25604 3.08423 3.00604 5.39674 3.00604 8.48008C3.00604 12.9355 7.71604 17.3293 14.856 23.9739L15.006 24.1281Z" fill="#393939"/>
</svg>
