<svg width="36" height="36" viewBox="0 0 36 36" fill="none" xmlns="http://www.w3.org/2000/svg">
<path fill-rule="evenodd" clip-rule="evenodd" d="M27 6H28.5C30.15 6 31.5 7.35 31.5 9V30C31.5 31.65 30.15 33 28.5 33H7.5C5.835 33 4.5 31.65 4.5 30V9C4.5 7.35 5.835 6 7.5 6H9V4.5C9 3.675 9.675 3 10.5 3C11.325 3 12 3.675 12 4.5V6H24V4.5C24 3.675 24.675 3 25.5 3C26.325 3 27 3.675 27 4.5V6ZM12 16.5H24C24.825 16.5 25.5 17.175 25.5 18C25.5 18.825 24.825 19.5 24 19.5H12C11.175 19.5 10.5 18.825 10.5 18C10.5 17.175 11.175 16.5 12 16.5ZM27 30H8.99996C8.17496 30 7.49996 29.325 7.49996 28.5V13.5H28.5V28.5C28.5 29.325 27.825 30 27 30ZM12 22.5H19.5C20.325 22.5 21 23.175 21 24C21 24.825 20.325 25.5 19.5 25.5H12C11.175 25.5 10.5 24.825 10.5 24C10.5 23.175 11.175 22.5 12 22.5Z" fill="#393939"/>
</svg>
