<svg width="36" height="36" viewBox="0 0 36 36" fill="none" xmlns="http://www.w3.org/2000/svg">
<path fill-rule="evenodd" clip-rule="evenodd" d="M17.999 2.99988C9.71902 2.99988 2.99902 9.71988 2.99902 17.9999C2.99902 26.2799 9.71902 32.9999 17.999 32.9999C26.279 32.9999 32.999 26.2799 32.999 17.9999C32.999 9.71988 26.279 2.99988 17.999 2.99988ZM19.499 28.4999H16.499V25.4999H19.499V28.4999ZM21.255 18.2548L22.605 16.8748C24.135 15.3448 24.66 12.7198 22.89 10.2748C21.54 8.39979 19.365 7.21479 17.085 7.57479C14.76 7.93479 12.885 9.61479 12.24 11.8198C12 12.6598 12.6 13.4998 13.47 13.4998H13.92C14.505 13.4998 14.97 13.0798 15.15 12.5248C15.645 11.0998 17.19 10.1548 18.855 10.6198C19.905 10.9198 20.745 11.8348 20.94 12.9148C21.135 13.9648 20.805 14.9548 20.115 15.6148L18.255 17.5048C17.625 18.1348 17.13 18.9148 16.83 19.7848C16.62 20.3998 16.5 21.0598 16.5 21.7498V22.4998H19.5C19.5 21.8098 19.575 21.2698 19.695 20.7898C19.965 19.7098 20.505 19.0198 21.255 18.2548Z" fill="#393939"/>
</svg>
