<svg width="33" height="23" viewBox="0 0 33 23" fill="none" xmlns="http://www.w3.org/2000/svg">
<path fill-rule="evenodd" clip-rule="evenodd" d="M5.5 4.625C5.5 3.86875 6.11875 3.25 6.875 3.25H28.875C29.6313 3.25 30.25 2.63125 30.25 1.875C30.25 1.11875 29.6313 0.5 28.875 0.5H5.5C3.9875 0.5 2.75 1.7375 2.75 3.25V18.375H2.0625C0.92125 18.375 0 19.2962 0 20.4375C0 21.5788 0.92125 22.5 2.0625 22.5H17.1875C18.3288 22.5 19.25 21.5788 19.25 20.4375C19.25 19.2962 18.3288 18.375 17.1875 18.375H5.5V4.625ZM31.6248 5.99998H23.3748C22.6186 5.99998 21.9998 6.61873 21.9998 7.37498V21.125C21.9998 21.8812 22.6186 22.5 23.3748 22.5H31.6248C32.3811 22.5 32.9998 21.8812 32.9998 21.125V7.37498C32.9998 6.61873 32.3811 5.99998 31.6248 5.99998ZM24.7501 18.375H30.2501V8.75002H24.7501V18.375Z" fill="#393939"/>
</svg>
