<svg width="33" height="33" viewBox="0 0 33 33" fill="none" xmlns="http://www.w3.org/2000/svg">
<path d="M16.5 0.25C7.53 0.25 0.25 7.53 0.25 16.5C0.25 25.47 7.53 32.75 16.5 32.75C25.47 32.75 32.75 25.47 32.75 16.5C32.75 7.53 25.47 0.25 16.5 0.25ZM16.5 5.125C19.1975 5.125 21.375 7.3025 21.375 10C21.375 12.6975 19.1975 14.875 16.5 14.875C13.8025 14.875 11.625 12.6975 11.625 10C11.625 7.3025 13.8025 5.125 16.5 5.125ZM16.5 28.2C12.4375 28.2 8.84625 26.12 6.75 22.9675C6.79875 19.7337 13.25 17.9625 16.5 17.9625C19.7337 17.9625 26.2013 19.7337 26.25 22.9675C24.1537 26.12 20.5625 28.2 16.5 28.2Z" fill="#393939"/>
</svg>
